<svg width="168" height="42" viewBox="0 0 168 42" fill="none" xmlns="http://www.w3.org/2000/svg">
<path fill-rule="evenodd" clip-rule="evenodd" d="M6.29726 0.202669C5.81443 0.432068 5.57369 0.699868 5.38805 1.2139C5.19804 1.7402 -0.0658203 35.4919 0.000623727 35.7583C0.0309477 35.8801 0.182064 36.1069 0.336456 36.2624L0.6171 36.545H4.78913C8.72293 36.545 8.9588 36.5535 8.91832 36.693C8.89471 36.7744 8.75695 37.616 8.61222 38.5631C8.3246 40.4457 8.33477 40.6075 8.76258 40.9464C8.96401 41.1059 9.12067 41.1127 12.6194 41.1127C16.5503 41.1127 16.4995 41.1179 17.0009 40.6587C17.417 40.2775 17.3397 40.6402 18.2671 34.7253C18.5882 32.6778 18.8936 30.8888 18.9457 30.7497C19.0779 30.3976 19.4312 30.0388 19.8279 29.8539C20.102 29.7261 20.374 29.6969 21.3043 29.6954C27.0372 29.686 30.8549 27.6893 32.9185 23.6209C34.039 21.412 34.6464 18.6796 34.5463 16.2982C34.4906 14.9734 34.2924 14.1307 33.8023 13.1337C33.3844 12.2837 32.5372 11.3338 31.751 10.8339L31.2064 10.4875L31.2711 9.79207C31.5048 7.28281 31.1537 5.5191 30.1115 3.96761C28.9364 2.21828 27.2706 1.15105 24.7667 0.543468C22.7961 0.0652162 22.7215 0.061579 14.4099 0.0296053L6.7239 0L6.29726 0.202669ZM52.8819 9.28463C52.5917 9.39443 52.2677 9.68913 52.165 9.93663C52.1045 10.0823 51.2001 15.6521 50.1552 22.3137C48.3362 33.9103 48.261 34.4369 48.3887 34.6855C48.462 34.8283 48.6171 34.9816 48.7334 35.0261C48.8505 35.0709 50.0196 35.1064 51.3544 35.1057C53.6925 35.1043 53.7736 35.0986 54.0925 34.9154C54.2732 34.8114 54.489 34.5932 54.572 34.4303C54.6697 34.2386 54.9014 32.9721 55.2297 30.8354C55.7865 27.2116 55.8682 26.9208 56.4086 26.6343C56.6679 26.4969 56.922 26.4792 58.641 26.4792C61.4827 26.4792 62.9829 26.2928 64.4832 25.7534C68.0478 24.4717 70.1577 21.3339 70.6098 16.6424C70.7525 15.1614 70.5201 13.6962 69.9668 12.5878C69.4948 11.6423 68.5306 10.7146 67.4919 10.2067C66.6005 9.77084 65.4948 9.45795 64.3479 9.31695C63.5691 9.22128 53.1273 9.19176 52.8819 9.28463ZM118.827 9.41024C118.587 9.53476 118.401 9.71019 118.307 9.90025C118.21 10.097 117.525 14.2612 116.264 22.3154C114.522 33.4481 114.378 34.4537 114.489 34.6697C114.555 34.7991 114.708 34.9504 114.83 35.0059C115.146 35.151 119.96 35.1457 120.242 35C120.678 34.7745 120.718 34.6172 121.293 30.9288C121.88 27.1578 121.918 27.0174 122.43 26.6698C122.699 26.4873 122.785 26.4792 124.45 26.4792C128.135 26.4792 129.988 26.1508 131.809 25.1752C134.483 23.7427 136.032 21.2072 136.594 17.3439C136.758 16.2118 136.72 14.6451 136.509 13.8335C135.893 11.472 134.107 10.0089 131.128 9.42547C130.466 9.29572 129.68 9.27355 124.786 9.24682L119.2 9.21629L118.827 9.41024ZM162.019 9.31086C161.915 9.35289 161.775 9.51226 161.708 9.66494C161.64 9.81761 160.728 15.4594 159.679 22.2021C157.945 33.3506 157.783 34.4813 157.893 34.6774C158.116 35.0772 158.281 35.1044 160.489 35.1058C162.461 35.1069 162.567 35.0987 162.925 34.9167C163.165 34.7946 163.354 34.6202 163.451 34.4303C163.556 34.2249 164.179 30.45 165.488 22.0947C166.525 15.4731 167.374 9.97943 167.374 9.88664C167.374 9.79393 167.263 9.60682 167.128 9.47081L166.883 9.22356L164.545 9.22889C163.26 9.23185 162.123 9.26873 162.019 9.31086ZM61.4499 14.5026C63.1341 14.8057 63.8041 15.6674 63.69 17.384C63.5486 19.5132 62.6194 20.7144 60.8053 21.1133C60.1093 21.2664 56.7459 21.3888 56.7459 21.2611C56.7459 21.1537 57.6536 15.355 57.7219 15.026C57.75 14.8909 57.8686 14.6911 57.9857 14.5819C58.1904 14.3909 58.2482 14.3834 59.5092 14.3863C60.2301 14.3879 61.1034 14.4403 61.4499 14.5026ZM128.172 14.6288C128.602 14.7696 128.847 14.9158 129.152 15.2132C129.702 15.7492 129.869 16.3104 129.799 17.3845C129.686 19.1081 129.047 20.2327 127.852 20.8062C127.081 21.1763 126.658 21.2413 124.681 21.2934L122.854 21.3415V21.1525C122.854 20.9388 123.76 15.0973 123.828 14.8719C123.852 14.7917 123.974 14.6453 124.098 14.5466C124.315 14.3743 124.39 14.3685 125.962 14.4041C127.361 14.4356 127.683 14.4684 128.172 14.6288ZM77.7039 17.5634C74.6368 18.11 72.0117 20.0986 70.5348 22.994C69.5675 24.8902 69.1255 27.1152 69.3462 28.9767C69.7346 32.2527 71.5272 34.4929 74.3671 35.2515C75.0855 35.4433 75.3508 35.4699 76.5699 35.4715C77.8077 35.4731 78.0457 35.4493 78.7959 35.2482C80.1699 34.88 81.5259 34.1533 82.4398 33.2954L82.8078 32.9501L82.7512 33.2461C82.7201 33.409 82.6721 33.7777 82.6446 34.0656C82.5966 34.568 82.605 34.5996 82.8555 34.8518L83.1165 35.1146L85.4652 35.0897C87.7012 35.0659 87.8253 35.0562 88.0509 34.8867C88.1812 34.7888 88.3574 34.5893 88.4422 34.4434C88.555 34.2494 88.9224 32.1009 89.8072 26.4617C90.4731 22.2177 91.0179 18.6555 91.0179 18.5457C91.0179 18.4358 90.9074 18.2346 90.7724 18.0986L90.5268 17.8514H88.0359H85.545L85.2994 18.0986C85.1644 18.2346 85.0539 18.4123 85.0539 18.4935C85.0539 18.5747 85.0122 18.8822 84.9612 19.177L84.8685 19.7129L84.6953 19.48C84.0971 18.6757 83.4676 18.2143 82.5253 17.8891C81.2464 17.4478 79.148 17.3061 77.7039 17.5634ZM144.442 17.4811C141.022 17.9198 138.212 19.9051 136.65 22.9855C135.822 24.6174 135.436 26.2112 135.435 28.0018C135.433 30.3644 136.099 32.1194 137.554 33.5845C138.377 34.4132 139.05 34.8116 140.185 35.1426C142.93 35.9432 145.991 35.3434 148.178 33.5767L148.918 32.9785L148.863 33.3026C148.688 34.3369 148.696 34.5548 148.918 34.8155L149.131 35.0647L151.385 35.0887C153.592 35.1121 153.648 35.1085 154.013 34.9195C154.253 34.7953 154.438 34.6207 154.533 34.4303C154.629 34.2366 155.103 31.4336 155.904 26.3239C156.966 19.5457 157.114 18.4842 157.022 18.2907C156.82 17.866 156.693 17.8483 154.041 17.8719C151.133 17.8977 151.315 17.8308 151.121 18.9453C151.053 19.3342 150.985 19.6651 150.969 19.6807C150.954 19.6963 150.755 19.4758 150.527 19.1906C149.876 18.377 148.877 17.8648 147.424 17.5993C146.873 17.4987 144.911 17.4209 144.442 17.4811ZM93.5705 17.9723C93.4729 18.0416 93.3463 18.2121 93.2891 18.3511C93.1949 18.58 93.2293 18.7341 93.6526 19.9828C97.0317 29.9489 98.1579 33.2881 98.1579 33.3414C98.1579 33.3764 97.0995 34.9071 95.8059 36.743C93.7627 39.6428 93.4539 40.1214 93.4539 40.3892C93.4539 40.6037 93.5166 40.7606 93.6601 40.905L93.8663 41.1127L96.4531 41.1123C98.8405 41.1121 99.06 41.0997 99.3 40.9524C99.4769 40.8438 101.168 38.4567 104.588 33.4879C107.354 29.4703 110.743 24.5472 112.119 22.5478C114.333 19.3326 114.622 18.8752 114.622 18.5896C114.622 18.3595 114.563 18.2069 114.416 18.059L114.21 17.8514H111.663C109.348 17.8514 109.091 17.8655 108.828 18.0076C108.599 18.1314 107.887 19.1307 105.392 22.8286C103.661 25.3943 102.235 27.4832 102.222 27.4705C102.21 27.4579 101.631 25.5263 100.936 23.1781C100.241 20.8299 99.5944 18.7565 99.4995 18.5704C99.1505 17.8862 99.1982 17.8967 96.3099 17.8698C94.1471 17.8498 93.7203 17.8657 93.5705 17.9723ZM81.565 22.295C83.1885 22.7208 84.126 23.999 84.1289 25.7903C84.1318 27.6285 83.0125 29.4649 81.4187 30.2369C79.536 31.1488 77.2416 30.8903 76.1549 29.6439C74.9662 28.2807 75.0834 25.8487 76.4236 24.0674C76.8092 23.5548 77.5144 22.966 78.111 22.6584C78.9939 22.2034 80.5795 22.0365 81.565 22.295ZM147.791 22.3247C148.836 22.6522 149.474 23.2051 149.925 24.1755C150.139 24.6366 150.187 24.8585 150.218 25.5393C150.286 27.0021 149.8 28.2764 148.781 29.3047C147.8 30.295 146.6 30.7931 145.196 30.7931C143.512 30.7931 142.322 30.1289 141.728 28.8571C141.403 28.1621 141.324 27.0184 141.539 26.1009C141.972 24.2447 143.354 22.778 145.12 22.2999C145.797 22.1166 147.168 22.1293 147.791 22.3247Z" fill="#EAEAEA"/>
</svg>
