<svg width="21" height="19" viewBox="0 0 21 19" fill="none" xmlns="http://www.w3.org/2000/svg">
<path fill-rule="evenodd" clip-rule="evenodd" d="M5.53474 0.0227263C4.89575 0.0776817 4.20932 0.268532 3.59098 0.563135C1.67267 1.47708 0.368326 3.32135 0.0341055 5.59232C-0.0171596 5.94066 -0.00893905 7.0749 0.0474073 7.4321C0.236053 8.62748 0.632154 9.57497 1.52955 10.9773C2.29049 12.1663 3.024 13.0435 4.29504 14.2846C5.31005 15.2757 6.38419 16.2078 7.67997 17.2219C8.33695 17.7361 9.62209 18.6901 9.8322 18.8197C10.2034 19.0485 10.7371 19.0609 11.1065 18.8492C11.283 18.748 12.6378 17.7474 13.3013 17.2281C16.0106 15.1077 18.0075 13.1329 19.1547 11.4395C20.236 9.84328 20.751 8.69771 20.9365 7.47614C21.0349 6.82761 21.0176 5.91023 20.8941 5.2299C20.4258 2.64967 18.4758 0.59047 16.0459 0.110188C14.4591 -0.203461 12.9612 0.155321 11.7035 1.15031C11.4145 1.37892 10.9497 1.84317 10.6965 2.15612C10.5954 2.2811 10.5045 2.38334 10.4946 2.38334C10.4847 2.38334 10.4001 2.28686 10.3065 2.16898C10.0624 1.86128 9.56867 1.37271 9.24424 1.11783C8.16849 0.272715 6.91852 -0.0963049 5.53474 0.0227263ZM6.84991 1.87591C8.26041 2.08757 9.41958 3.06534 10.0699 4.59195C10.1836 4.85883 10.3175 4.98171 10.4946 4.98171C10.6946 4.98171 10.7924 4.87892 10.9799 4.4717C11.4545 3.44075 12.1526 2.66854 12.9927 2.24503C13.3346 2.07273 13.5633 1.99114 13.9286 1.91127C14.17 1.8585 14.2745 1.85083 14.7379 1.8519C15.1827 1.85294 15.314 1.86247 15.5387 1.9101C15.9002 1.98668 16.1726 2.07699 16.5053 2.23056C16.9876 2.45324 17.3011 2.66677 17.7004 3.04434C19.1249 4.39144 19.5983 6.54099 18.8825 8.41155C18.5021 9.40532 17.6226 10.7726 16.6511 11.8804C16.2517 12.3357 15.2085 13.3756 14.6182 13.9069C13.5529 14.8655 12.1822 15.9652 10.9424 16.8557C10.7034 17.0273 10.5019 17.1677 10.4946 17.1677C10.4711 17.1674 9.63355 16.5586 9.13213 16.1773C7.63722 15.0403 6.634 14.1817 5.46509 13.0389C4.07277 11.6776 3.37674 10.7985 2.57262 9.38594C1.84778 8.11258 1.62383 6.86895 1.88875 5.58853C2.2334 3.92282 3.38352 2.57801 4.90618 2.06037C5.15806 1.97475 5.5611 1.88123 5.78577 1.85632C6.02084 1.83025 6.61905 1.84127 6.84991 1.87591Z" fill="#BABABA"/>
</svg>
